<?xml version="1.0" encoding="UTF-8"?>
<svg version="1.1" xmlns="http://www.w3.org/2000/svg" style="display: block;" viewBox="0 0 512 512">
<path transform="translate(0,0)" fill="rgb(0,0,0)" d="M 312.579 475.816 C 291.707 480.007 271.478 474.139 255.914 459.339 L 255.37 459.957 C 253.186 462.251 250.558 464.144 247.972 465.956 C 209.909 492.616 157.741 469.295 150.948 423.702 C 150.043 417.632 150.22 411.558 150.219 405.442 L 150.081 376.983 C 142.063 376.71 134.259 376.97 126.25 375.988 C 57.1824 367.515 11.401 296.819 26.1887 229.996 C 32.5906 201.067 50.094 176.021 73.7943 158.618 L 78.2514 155.491 C 79.4972 154.651 79.8188 154.908 79.8784 153.412 L 80.071 148.714 C 82.4792 91.8946 126.446 42.8307 181.283 30.8459 C 187.605 29.4643 193.986 28.8336 200.425 28.3573 L 200.64 28.3395 C 219.396 26.9332 241.131 35.1819 255.294 47.6467 L 255.609 47.9268 C 286.53 24.9298 318.574 23.3034 353.04 37.6838 C 391.27 53.6345 421.882 89.395 429.909 130.251 C 431.519 138.445 432.096 146.565 432.529 154.882 C 434.739 155.995 436.75 157.612 438.732 159.091 C 479.74 189.696 496.74 237.355 484.742 286.375 C 473.366 332.857 433.077 369.892 385.375 375.952 C 377.536 376.948 369.632 376.899 361.745 376.988 L 361.637 404.267 C 361.636 410.251 361.82 416.34 361.115 422.295 C 358.01 448.54 337.87 469.301 312.579 475.816 z M 305.034 68.6016 C 292.124 69.584 285.224 78.6364 275.536 85.9983 L 275.336 225.143 C 276.883 225.554 279.278 225.21 280.906 225.197 L 360.69 225.183 C 364.545 225.177 368.282 224.777 372.074 225.801 C 399.653 233.248 409.879 270.74 386.576 283.901 C 377.062 289.275 363.302 287.813 357.863 277.423 C 355.976 273.818 355.584 269.634 354.783 265.702 C 347.723 264.651 339.938 265.237 332.788 265.237 L 296.049 265.238 C 289.225 265.237 282.301 265.497 275.493 265.082 L 275.47 403.885 C 275.471 408.752 274.983 414.247 275.787 419.032 C 280.005 444.145 315.161 445.207 321.637 419.938 C 323.109 411.717 322.571 402.889 322.575 394.556 L 322.573 356.582 C 322.57 350.084 322.279 343.459 322.633 336.984 C 331.674 337.773 341.082 337.278 350.165 337.273 C 358.8 337.267 367.681 337.663 376.277 336.875 C 414.677 333.356 445.579 300.922 448.869 262.767 C 452.733 217.958 415.41 179.126 371.616 175.735 L 327.211 175.542 L 327.157 134.279 L 351.474 134.524 C 364.546 134.506 377.715 134.264 390.552 137.181 C 383.487 102.911 350.426 74.4214 316.289 69.3531 C 312.573 68.8014 308.798 68.368 305.034 68.6016 z M 200.413 69.1022 C 177.11 71.0937 154.208 84.1518 139.166 102.02 C 130.517 112.295 125.156 124.676 121.402 137.447 C 134.17 134.432 147.785 134.525 160.847 134.529 L 184.506 134.573 L 184.663 175.504 L 157.173 175.499 C 150.981 175.501 144.716 175.322 138.544 175.889 C 71.8936 182.01 36.7146 263.954 86.7433 313.977 C 106.365 333.596 126.756 337.245 152.574 337.257 L 187.013 337.268 C 187.684 337.27 188.937 337.093 189.517 337.409 L 189.484 405.997 C 189.477 412.758 189.175 418.841 192.564 424.97 C 204.728 444.543 231.2 442.134 235.973 419.75 C 236.93 415.263 236.516 410.057 236.516 405.462 L 236.506 280.243 C 236.508 275.276 236.293 270.212 236.764 265.264 L 166.188 265.229 C 153.303 265.213 158.37 263.827 155.775 273.867 C 151.53 290.291 127.45 290.57 117.443 276.67 C 102.977 256.577 119.267 228.979 143.351 225.464 C 147.719 224.826 152.434 225.153 156.844 225.17 L 236.74 225.312 C 236.375 220.178 236.51 215.007 236.507 209.862 L 236.511 111.835 C 236.512 108.758 237.041 87.0424 236.152 85.3427 C 235.921 84.8997 234.856 84.1424 234.462 83.7784 L 229.906 79.5743 C 221.2 72.014 211.946 68.1544 200.51 69.0877 L 200.413 69.1022 z"/>
</svg>
