<svg width="764" height="764" viewBox="0 0 764 764" fill="none" xmlns="http://www.w3.org/2000/svg">
<rect width="764" height="764" rx="382" fill="white"/>
<path d="M438.58 601.816C417.708 606.007 397.479 600.139 381.915 585.339L381.371 585.957C379.187 588.251 376.559 590.144 373.973 591.956C335.91 618.616 283.742 595.295 276.949 549.702C276.044 543.632 276.221 537.558 276.22 531.442L276.082 502.983C268.064 502.71 260.26 502.97 252.251 501.988C183.184 493.515 137.402 422.819 152.19 355.996C158.592 327.067 176.095 302.021 199.795 284.618L204.253 281.491C205.498 280.651 205.82 280.908 205.88 279.412L206.072 274.714C208.48 217.894 252.447 168.831 307.284 156.846C313.606 155.464 319.987 154.833 326.426 154.357L326.641 154.339C345.397 152.933 367.132 161.182 381.295 173.647L381.61 173.927C412.531 150.93 444.575 149.303 479.041 163.684C517.271 179.634 547.883 215.395 555.91 256.251C557.52 264.445 558.097 272.565 558.53 280.882C560.74 281.995 562.751 283.612 564.733 285.091C605.741 315.696 622.741 363.355 610.743 412.375C599.367 458.857 559.078 495.892 511.376 501.952C503.537 502.948 495.633 502.899 487.746 502.988L487.638 530.267C487.637 536.251 487.821 542.34 487.116 548.295C484.011 574.54 463.871 595.301 438.58 601.816ZM431.035 194.601C418.125 195.584 411.225 204.636 401.537 211.998L401.337 351.143C402.884 351.554 405.279 351.21 406.907 351.197L486.691 351.183C490.546 351.177 494.283 350.777 498.075 351.801C525.654 359.248 535.88 396.74 512.577 409.901C503.063 415.275 489.303 413.813 483.864 403.423C481.977 399.818 481.585 395.634 480.784 391.702C473.724 390.651 465.939 391.237 458.789 391.237L422.05 391.238C415.226 391.237 408.302 391.497 401.494 391.082L401.471 529.885C401.472 534.752 400.984 540.247 401.788 545.032C406.006 570.145 441.162 571.207 447.638 545.938C449.11 537.717 448.572 528.889 448.576 520.556L448.574 482.582C448.571 476.084 448.28 469.459 448.634 462.984C457.675 463.773 467.083 463.278 476.166 463.273C484.801 463.267 493.682 463.663 502.278 462.875C540.678 459.356 571.58 426.922 574.87 388.767C578.734 343.958 541.411 305.126 497.617 301.735L453.212 301.542L453.158 260.279L477.475 260.524C490.547 260.506 503.716 260.264 516.553 263.181C509.488 228.911 476.427 200.421 442.29 195.353C438.574 194.801 434.799 194.368 431.035 194.601ZM326.414 195.102C303.111 197.094 280.209 210.152 265.167 228.02C256.518 238.295 251.157 250.676 247.403 263.447C260.171 260.432 273.786 260.525 286.848 260.529L310.507 260.573L310.664 301.504L283.174 301.499C276.982 301.501 270.717 301.322 264.545 301.889C197.895 308.01 162.716 389.954 212.744 439.977C232.366 459.596 252.757 463.245 278.575 463.257L313.014 463.268C313.685 463.27 314.938 463.093 315.518 463.409L315.485 531.997C315.478 538.758 315.176 544.841 318.565 550.97C330.729 570.543 357.201 568.134 361.974 545.75C362.931 541.263 362.517 536.057 362.517 531.462L362.507 406.243C362.509 401.276 362.294 396.212 362.765 391.264L292.189 391.229C279.304 391.213 284.371 389.827 281.776 399.867C277.531 416.291 253.451 416.57 243.444 402.67C228.978 382.577 245.268 354.979 269.352 351.464C273.72 350.826 278.435 351.153 282.845 351.17L362.741 351.312C362.376 346.178 362.511 341.007 362.508 335.862L362.512 237.835C362.513 234.758 363.042 213.042 362.153 211.343C361.922 210.9 360.857 210.142 360.463 209.778L355.907 205.574C347.201 198.014 337.947 194.154 326.511 195.088L326.414 195.102Z" fill="black"/>
</svg>
